{"glyphs":{":":{"x_min":0,"x_max":287,"ha":287,"o":"m 104 -6 q 83 -6 68 7 q 53 19 53 42 l 53 58 q 53 82 71 103 q 89 124 116 124 l 128 124 q 151 124 167 111 q 182 98 182 71 l 182 66 q 182 41 166 18 q 150 -4 126 -4 l 116 -6 z m 188 441 l 197 441 q 221 441 236 428 q 251 416 251 392 l 251 379 q 251 354 230 328 q 217 312 194 312 q 189 311 188 311 l 177 311 q 122 311 122 363 l 122 368 l 124 385 q 124 411 145 426 q 167 441 188 441 z"},"$":{"x_min":0,"x_max":521,"ha":521,"o":"m 251 42 q 294 42 326 78 q 358 115 358 160 l 358 162 q 358 189 344 216 q 318 262 291 262 q 284 262 281 251 q 235 99 235 44 q 235 41 239 41 l 242 41 q 248 42 251 42 z m 312 587 l 312 589 q 312 593 309 593 l 306 593 l 303 592 l 301 592 q 262 592 231 561 q 200 530 200 487 l 200 485 q 200 459 215 436 q 240 396 264 396 l 266 396 q 271 396 272 406 q 312 584 312 587 z m 166 58 q 189 58 199 80 q 234 159 234 251 q 234 283 192 318 q 149 354 132 383 q 114 412 114 449 q 114 526 170 577 q 211 614 274 628 q 305 636 312 641 q 320 647 333 676 q 346 704 359 704 q 372 704 379 687 l 384 667 q 386 656 391 651 q 396 646 416 631 q 436 616 450 608 q 463 600 468 595 q 483 578 483 539 q 483 500 458 500 q 448 500 426 538 q 404 575 375 575 q 356 575 346 545 q 313 452 313 400 q 313 375 359 340 q 406 305 427 272 q 448 240 448 196 q 448 127 403 76 q 358 26 291 9 q 282 7 260 3 q 238 -1 230 -6 q 222 -11 210 -47 q 199 -83 183 -83 q 167 -83 165 -51 q 164 -19 153 -6 q 143 8 105 17 q 68 26 52 41 q 36 56 36 90 l 36 102 q 36 132 55 151 l 63 157 q 79 157 104 107 q 129 58 166 58 z"},"?":{"x_min":0,"x_max":454,"ha":454,"o":"m 155 -8 q 128 -8 115 6 q 102 19 102 42 l 102 48 l 102 50 l 102 54 q 103 58 103 61 q 103 77 119 96 q 135 115 153 115 q 161 117 163 117 l 178 117 q 199 117 214 104 q 229 92 229 71 l 229 55 q 229 33 212 13 q 196 -6 174 -6 l 161 -8 z m 454 532 l 454 523 q 454 473 424 432 q 395 391 332 346 q 270 301 256 286 q 242 271 235 239 q 229 207 226 203 q 216 190 200 190 q 167 190 167 262 q 167 293 198 333 q 211 350 257 390 q 302 430 322 463 q 342 496 342 530 q 342 564 323 577 q 305 590 278 590 q 250 590 211 562 q 172 534 157 534 q 136 534 136 569 l 136 576 q 136 613 180 642 q 225 671 287 671 l 296 671 q 364 671 409 632 q 454 592 454 532 z"},"<":{"x_min":0,"x_max":562,"ha":562,"o":"m 493 499 q 506 499 506 477 l 506 469 q 506 439 460 413 q 429 395 301 333 q 173 271 173 268 q 173 260 306 190 q 439 120 456 108 q 490 86 490 57 q 490 28 480 28 q 471 28 438 44 q 130 203 101 220 q 72 237 72 257 q 72 292 100 307 q 462 499 493 499 z"},"'":{"x_min":0,"x_max":244,"ha":244,"o":"m 211 694 l 228 694 q 259 694 259 674 l 259 668 l 258 666 l 258 663 q 258 620 199 465 q 185 430 166 430 l 160 430 q 143 430 143 443 l 143 453 l 143 457 l 143 463 l 144 473 l 145 487 q 147 501 147 508 q 148 515 148 519 l 149 525 l 150 539 l 150 542 l 152 573 q 152 576 152 580 l 154 603 q 156 613 156 619 q 157 625 157 628 q 157 694 211 694 z"},"=":{"x_min":0,"x_max":564,"ha":564,"o":"m 140 214 l 450 214 q 521 214 521 197 l 521 182 q 521 150 507 147 q 494 144 316 144 l 96 144 q 66 144 66 156 l 66 182 q 66 207 76 210 q 85 214 140 214 z m 310 389 l 482 389 q 527 389 527 372 l 527 361 l 527 356 q 527 326 517 323 q 507 319 448 319 l 123 319 q 72 319 72 336 l 72 351 q 72 383 88 386 q 104 389 310 389 z"},"a":{"x_min":0,"x_max":521,"ha":521,"o":"m 168 61 l 175 61 q 193 61 217 78 q 261 109 288 151 q 315 193 335 251 q 354 309 354 344 l 354 348 q 354 370 340 384 q 325 398 296 398 l 292 398 q 266 398 238 376 q 210 354 188 317 q 130 217 130 131 l 130 123 q 130 92 141 76 q 152 61 168 61 z m 356 1 q 307 1 307 64 q 307 94 297 94 q 292 94 260 64 q 193 1 126 1 q 80 1 53 33 q 27 65 27 109 l 27 119 q 27 178 53 238 q 107 367 205 420 q 248 444 282 444 q 317 444 342 432 q 367 420 373 420 q 379 420 398 433 q 418 445 434 445 l 442 445 q 474 445 474 410 q 474 393 438 276 q 402 160 402 117 q 402 86 425 86 q 435 85 441 85 q 466 85 466 67 q 466 45 429 23 q 392 1 356 1 z"},"L":{"x_min":0,"x_max":565,"ha":565,"o":"m 176 612 q 136 638 136 643 q 136 665 170 665 l 226 665 l 241 665 l 270 665 q 404 665 404 650 q 404 639 375 623 q 346 607 334 594 q 322 582 309 543 q 297 504 253 310 q 210 116 210 91 q 210 66 234 60 q 248 56 304 56 q 361 56 395 72 q 429 88 472 133 q 515 177 527 177 q 538 177 538 155 q 538 133 511 51 q 499 17 485 9 q 472 0 239 0 l 130 0 l 56 0 q 15 0 15 19 q 15 25 60 60 q 83 78 99 124 q 102 134 148 341 q 195 548 195 574 q 195 600 176 612 z"},"3":{"x_min":0,"x_max":525,"ha":525,"o":"m 56 98 q 67 98 116 67 q 166 36 215 36 q 265 36 305 82 q 345 128 345 186 q 345 243 309 273 q 289 290 240 301 q 191 312 191 333 q 191 345 245 366 q 373 417 373 497 q 373 527 350 547 q 327 567 289 567 q 251 567 206 540 q 161 512 159 512 q 143 512 143 532 q 143 542 157 570 q 172 598 202 616 q 249 644 321 644 l 337 644 q 408 644 450 613 q 491 582 491 543 l 491 528 q 491 454 394 385 q 357 359 357 350 q 357 348 389 326 q 420 305 438 275 q 457 246 457 198 q 457 153 434 109 q 388 22 283 -11 q 231 -28 187 -28 l 171 -28 q 106 -28 66 -3 q 26 21 26 65 q 26 98 56 98 z"},";":{"x_min":0,"x_max":287,"ha":287,"o":"m 184 76 l 184 64 q 184 2 131 -60 q 96 -102 65 -118 q 35 -134 25 -134 l 22 -134 q 11 -134 11 -119 l 11 -117 q 11 -109 31 -93 q 91 -42 91 -5 q 91 10 75 30 q 60 49 60 73 q 60 98 79 114 q 99 130 124 130 l 132 130 l 136 130 q 184 130 184 76 z m 167 314 q 149 314 136 327 q 123 340 123 364 l 123 373 l 124 375 l 124 379 q 125 383 125 385 q 125 413 146 428 q 167 443 187 443 l 201 443 q 225 443 239 430 q 252 417 252 396 l 252 379 q 252 356 234 335 q 217 313 188 313 l 173 313 q 168 314 167 314 z"},"J":{"x_min":0,"x_max":464,"ha":464,"o":"m -17 11 q -17 61 25 61 q 50 61 71 46 q 92 32 108 32 q 137 32 167 64 q 226 127 270 333 q 299 469 299 558 q 299 584 277 598 q 229 627 229 634 q 229 664 375 664 l 442 664 q 498 664 498 650 q 498 636 475 620 q 452 603 441 570 q 429 537 386 338 q 343 139 302 68 q 260 -3 204 -36 q 149 -69 89 -69 l 77 -69 q -17 -69 -17 11 z"},"V":{"x_min":0,"x_max":643,"ha":643,"o":"m 316 644 q 316 643 299 610 q 282 577 282 524 q 282 292 309 158 l 312 147 q 335 147 497 449 q 554 556 554 603 q 554 614 545 626 q 537 639 537 643 q 537 665 607 665 l 658 665 q 719 665 719 642 q 719 626 682 601 q 646 576 633 557 q 603 511 574 462 q 545 413 435 232 q 324 51 319 44 q 283 -5 252 -5 q 221 -5 214 29 q 210 48 184 299 q 158 549 154 568 q 149 587 123 606 q 97 625 97 642 q 97 662 235 662 q 316 662 316 644 z"},"\"":{"x_min":0,"x_max":411,"ha":411,"o":"m 254 674 l 254 663 q 254 607 193 460 q 181 431 163 431 l 156 431 q 139 431 139 444 l 139 450 l 140 454 l 140 457 l 141 477 l 143 495 l 144 508 q 146 522 146 529 l 147 543 l 148 560 l 148 563 q 148 566 148 570 l 149 573 q 149 577 149 580 l 151 603 q 153 620 153 641 q 153 662 166 678 q 179 694 214 694 l 218 694 q 254 694 254 674 z m 421 653 q 421 604 359 456 q 348 430 328 430 q 307 430 307 445 l 307 452 l 308 455 l 309 472 l 310 486 l 311 493 l 312 514 q 314 527 314 534 q 315 541 315 544 l 319 608 l 320 611 l 320 617 l 322 633 q 322 694 380 694 l 387 694 q 422 694 422 676 l 422 665 q 421 656 421 653 z"},"7":{"x_min":0,"x_max":523,"ha":523,"o":"m 109 0 q 109 38 268 274 q 427 510 427 531 q 427 551 347 551 q 266 551 229 541 q 191 530 159 509 q 127 488 123 488 q 108 488 108 505 q 108 565 147 624 q 159 642 191 642 q 230 638 253 638 q 276 638 289 639 l 314 640 l 429 640 q 442 639 455 639 q 543 639 543 619 q 543 593 507 530 q 470 467 397 351 q 325 234 295 179 q 265 125 236 67 q 208 9 204 5 q 185 -22 147 -22 q 109 -22 109 0 z"},"S":{"x_min":0,"x_max":526,"ha":526,"o":"m 69 191 q 69 191 69 191 q 82 191 100 148 q 144 48 242 47 q 295 47 332 78 q 370 108 370 157 q 370 206 337 238 q 321 254 248 301 q 175 348 148 387 q 120 426 120 471 q 120 560 182 616 q 210 642 251 658 q 292 674 331 674 l 349 674 q 372 674 411 665 q 450 656 499 656 q 522 656 522 618 q 522 548 505 510 q 498 494 490 494 q 475 494 456 533 q 438 573 410 595 q 383 617 334 617 q 286 617 254 587 q 222 557 222 503 q 222 470 253 439 q 270 423 338 382 q 406 341 433 312 q 475 265 475 193 q 475 154 457 116 q 417 34 324 3 q 284 -10 241 -10 q 197 -10 153 2 q 109 15 85 15 l 72 14 l 59 13 q 31 13 31 46 l 31 61 q 31 128 48 170 q 56 191 69 191 z"},"}":{"x_min":0,"x_max":375,"ha":375,"o":"m 175 708 q 314 708 314 584 q 314 548 292 470 q 270 392 270 363 q 270 318 302 299 q 333 280 333 270 q 333 266 278 237 q 250 222 236 193 q 228 175 212 62 q 197 -50 168 -90 q 138 -130 97 -147 q 56 -165 22 -165 q -12 -165 -12 -160 l -12 -153 q -12 -149 43 -111 q 75 -89 92 -56 q 109 -23 124 71 q 140 165 153 193 q 166 221 182 234 q 197 248 218 259 q 238 271 238 272 q 238 274 221 287 q 205 300 195 317 q 185 334 185 375 q 185 388 203 467 q 221 546 221 582 q 221 618 198 647 q 193 654 175 669 q 156 685 156 693 q 156 708 175 708 z"},"Z":{"x_min":0,"x_max":599,"ha":599,"o":"m 463 602 q 463 608 383 608 q 302 608 260 593 q 217 577 180 538 q 143 499 131 499 q 120 499 120 512 q 120 543 142 614 q 152 646 167 655 q 182 664 351 664 l 486 664 l 525 665 l 544 665 q 615 665 615 645 q 615 616 570 559 q 525 501 345 290 q 166 79 166 67 q 166 56 265 56 q 364 56 420 81 q 454 95 493 133 q 533 171 540 171 q 552 171 552 157 q 552 143 537 90 q 521 37 514 24 q 497 -2 442 -2 l 351 -2 l 332 -2 l 292 -1 l 250 0 l 128 0 q 14 0 14 17 q 14 42 56 98 q 98 154 281 368 q 463 583 463 602 z"},"x":{"x_min":0,"x_max":501,"ha":501,"o":"m 454 72 q 454 51 407 25 q 361 -1 325 -1 q 306 -1 293 14 q 281 30 255 90 q 230 150 219 150 q 208 150 143 59 q 100 -1 75 -1 l 64 -1 q 44 -1 25 11 q 7 23 7 43 q 7 67 48 76 q 89 85 120 113 q 151 140 175 175 q 200 210 200 228 q 200 245 183 287 q 167 328 152 346 q 138 363 95 363 q 72 363 72 379 q 72 395 100 411 q 157 444 187 444 q 217 444 230 425 q 242 405 262 358 q 283 312 287 312 q 298 312 353 378 q 408 444 430 444 l 440 444 q 457 444 474 430 q 491 416 491 405 l 491 396 q 491 373 451 366 q 412 360 376 327 q 312 266 312 224 q 312 182 353 112 q 374 76 401 76 l 438 83 q 454 83 454 72 z"},")":{"x_min":0,"x_max":365,"ha":365,"o":"m -35 -158 q -35 -147 9 -105 q 54 -62 88 -17 q 122 29 155 104 q 220 252 220 419 q 220 521 178 616 q 150 678 150 684 q 150 705 168 705 q 187 705 218 668 q 249 631 274 574 q 312 487 312 388 l 312 366 q 312 290 288 203 q 263 116 214 39 q 165 -38 106 -91 q 16 -172 -19 -172 q -35 -172 -35 -158 z"},"&":{"x_min":0,"x_max":725,"ha":725,"o":"m 137 182 l 137 164 q 137 119 171 82 q 205 45 254 45 l 270 45 q 299 45 337 66 q 375 86 375 109 l 375 116 q 375 127 287 265 q 252 320 245 320 l 235 320 q 204 320 170 272 q 137 224 137 182 z m 424 553 q 424 579 408 597 q 392 616 368 616 l 359 616 q 328 616 303 588 q 279 560 279 523 l 279 505 q 280 497 280 491 q 280 467 305 426 q 313 413 322 413 l 325 413 q 354 413 389 457 q 423 500 423 527 l 424 541 z m 585 361 q 667 361 667 343 l 667 338 q 667 327 650 316 l 629 308 q 619 302 610 291 q 532 182 532 139 q 532 113 563 83 q 579 67 608 58 q 638 48 638 36 q 638 11 561 11 q 544 11 513 23 q 482 35 456 35 q 430 35 365 17 q 300 0 229 0 l 212 0 q 98 0 53 81 q 37 109 37 138 l 37 153 q 37 199 62 243 q 88 288 141 324 l 183 351 q 196 363 196 405 q 196 405 191 431 q 186 458 186 483 q 186 556 230 604 q 274 653 343 653 q 412 653 448 622 q 483 591 483 540 q 483 489 450 438 q 439 421 407 390 q 375 359 375 346 q 375 318 423 264 q 455 229 477 229 q 498 229 521 266 q 544 303 544 333 l 542 344 q 542 361 585 361 z"},"_":{"x_min":0,"x_max":512,"ha":512,"o":"m 439 -129 l 422 -129 l 416 -129 l 359 -129 l 348 -128 l 296 -128 l 285 -128 l 233 -128 l 216 -127 q -27 -127 -27 -112 l -27 -107 l -26 -102 l -26 -96 q -26 -78 -23 -73 q -20 -69 12 -69 l 115 -69 l 121 -70 l 246 -70 q 489 -70 489 -86 l 489 -97 l 488 -102 q 488 -121 485 -125 q 482 -129 439 -129 z"},"v":{"x_min":0,"x_max":500,"ha":500,"o":"m 263 116 q 305 147 339 197 q 388 271 388 345 q 388 357 382 379 q 376 400 376 411 q 376 421 394 434 q 412 446 438 446 q 465 446 481 432 q 497 418 497 393 l 497 383 q 497 368 474 326 q 380 160 367 144 q 322 87 274 47 q 227 7 197 7 l 188 7 q 150 7 135 42 q 128 57 128 142 l 130 224 q 130 306 115 343 q 108 363 79 363 q 50 363 50 381 q 50 398 94 419 q 138 439 169 439 q 201 439 213 411 q 225 382 225 300 l 220 136 q 220 99 230 99 q 240 99 263 116 z"},"O":{"x_min":0,"x_max":724,"ha":724,"o":"m 186 244 l 186 220 q 186 138 224 89 q 262 41 329 41 q 424 41 500 145 q 534 191 560 269 q 586 347 586 426 l 586 435 q 586 522 549 572 q 513 622 452 622 l 436 622 q 393 621 346 591 q 259 534 212 395 q 186 314 186 244 z m 706 425 l 706 404 q 706 328 673 249 q 605 87 465 21 q 396 -12 323 -12 l 300 -12 q 254 -12 209 7 q 116 46 83 143 q 66 190 66 247 l 66 258 l 66 269 q 66 342 102 420 q 175 583 318 646 q 382 674 450 674 l 472 674 q 518 674 562 655 q 652 617 686 529 q 706 476 706 425 z"},"(":{"x_min":0,"x_max":365,"ha":365,"o":"m 407 705 q 424 705 424 693 q 424 681 379 638 q 334 595 300 548 q 266 502 234 428 q 170 281 170 106 q 170 8 219 -96 q 239 -140 239 -147 q 239 -171 224 -171 q 201 -171 170 -133 q 140 -95 121 -52 q 77 45 77 154 l 77 166 q 77 330 170 484 q 217 564 295 635 q 374 705 407 705 z"},"C":{"x_min":0,"x_max":640,"ha":640,"o":"m 656 616 q 656 557 641 511 q 632 485 615 485 q 608 485 585 526 q 563 567 527 590 q 491 612 438 612 q 384 612 336 580 q 245 518 206 393 q 185 327 185 268 q 185 113 288 72 q 315 62 364 62 q 413 62 487 101 q 562 141 564 141 q 578 141 578 127 q 578 113 559 81 q 541 49 500 25 q 485 16 427 3 q 370 -10 338 -10 l 321 -10 q 206 -10 135 62 q 63 133 63 251 l 63 268 q 63 346 99 426 q 169 586 321 648 q 381 673 447 673 l 463 673 q 499 673 545 662 q 592 650 601 650 l 613 651 l 626 652 q 656 652 656 616 z"},"W":{"x_min":0,"x_max":899,"ha":899,"o":"m 790 620 q 790 656 921 656 q 961 656 961 639 q 961 626 942 610 q 905 578 896 563 l 886 542 l 877 519 q 860 479 845 448 l 818 399 q 805 374 741 246 q 677 118 648 68 q 619 18 582 18 q 552 18 537 72 q 522 126 514 283 q 506 440 491 440 l 478 420 q 468 404 405 284 q 342 164 310 114 q 278 65 253 46 q 229 27 216 27 q 184 27 175 61 q 160 121 160 387 l 161 414 l 162 439 q 162 457 162 501 q 162 545 157 564 q 153 584 135 602 q 118 619 118 621 l 118 633 q 118 646 188 646 q 257 646 289 635 q 309 627 309 609 q 309 602 303 584 l 290 548 q 280 510 280 439 l 279 416 l 278 368 q 278 344 278 280 q 278 215 289 215 q 301 215 396 388 q 418 428 441 490 q 495 637 554 637 l 555 637 q 583 637 595 626 q 616 606 616 545 q 616 483 621 420 q 626 357 626 281 q 626 205 636 205 q 653 205 756 438 q 796 530 796 574 l 794 590 q 790 614 790 620 z"},"A":{"x_min":0,"x_max":652,"ha":652,"o":"m 271 278 l 382 278 q 421 278 421 292 l 421 295 l 420 299 l 420 302 l 418 324 l 417 343 l 416 357 q 414 373 414 380 q 413 388 413 393 q 412 399 412 404 l 410 418 q 409 426 409 433 q 408 441 408 444 l 405 475 q 402 497 402 517 q 402 538 395 538 q 387 538 357 477 q 355 473 328 425 l 274 332 q 248 289 248 285 l 248 283 q 248 278 271 278 z m 447 664 q 465 664 477 650 q 488 636 495 600 q 502 565 508 500 q 515 435 534 271 q 553 108 558 88 q 562 68 588 54 q 613 40 613 32 q 613 13 600 8 q 588 3 485 3 q 382 3 382 22 q 382 28 395 44 q 408 60 411 66 q 430 102 430 154 q 430 207 409 221 q 397 229 310 229 q 222 229 206 211 q 190 193 167 139 q 145 84 145 55 q 145 44 157 32 q 169 20 169 17 q 169 1 122 1 l 48 1 q -28 1 -28 20 q -28 29 30 69 q 51 83 92 146 q 103 163 187 302 q 271 440 309 515 q 348 589 371 619 q 404 664 447 664 z"},"f":{"x_min":0,"x_max":332,"ha":332,"o":"m 417 603 q 412 603 389 617 q 365 631 351 631 q 314 631 290 587 q 267 543 267 479 q 267 451 298 442 q 345 429 345 415 q 345 406 312 391 q 278 376 258 356 q 237 336 227 313 q 217 290 181 128 q 145 -33 120 -78 q 68 -169 -1 -169 l -13 -169 q -30 -169 -46 -158 q -62 -147 -62 -135 q -62 -108 -36 -106 q -10 -104 8 -86 q 25 -67 44 -22 q 63 23 90 151 q 117 278 117 297 q 117 315 110 352 q 103 389 101 394 q 98 398 92 405 q 86 411 86 415 q 86 418 119 448 q 152 478 182 542 q 212 605 255 643 q 317 698 395 698 q 437 698 456 678 q 465 668 465 648 q 465 629 451 616 q 438 603 417 603 z"},"Q":{"x_min":0,"x_max":719,"ha":719,"o":"m 298 49 l 319 49 q 366 49 400 74 q 435 99 478 164 q 556 283 556 406 l 556 429 q 556 500 523 546 q 490 593 430 593 l 422 593 q 330 593 258 488 q 222 435 202 364 q 182 293 182 242 l 182 226 l 183 218 q 183 146 215 97 q 248 49 298 49 z m 108 333 l 108 348 q 108 405 125 446 q 142 487 176 522 q 261 609 301 632 q 340 654 400 654 l 425 654 q 541 654 609 584 q 677 514 677 384 q 677 287 622 198 q 591 149 512 80 q 434 10 434 -5 q 434 -24 525 -69 q 574 -93 605 -93 l 628 -91 q 644 -90 661 -90 q 679 -90 679 -100 q 679 -119 632 -140 q 584 -161 544 -161 l 530 -161 q 448 -161 181 -21 q 152 -5 152 48 l 151 88 q 151 109 144 134 l 135 159 q 108 235 108 333 z"},"w":{"x_min":0,"x_max":729,"ha":729,"o":"m 474 349 l 469 168 q 469 113 485 113 q 495 113 521 134 q 547 155 584 223 q 620 291 620 358 l 619 372 l 619 384 q 619 436 676 436 q 711 436 711 398 q 711 383 683 302 q 655 220 604 141 q 553 62 522 35 q 492 8 460 8 q 428 8 401 55 q 389 77 372 145 q 355 212 345 212 q 342 212 323 187 q 223 50 172 50 q 141 50 127 73 q 122 83 122 156 q 122 230 116 253 q 111 276 88 332 q 65 388 65 391 q 65 417 93 428 q 120 440 154 440 q 188 440 205 426 q 221 412 221 380 q 221 373 214 315 q 208 256 208 185 q 208 113 227 113 q 246 113 283 179 q 320 244 351 318 q 382 391 387 398 q 407 426 440 426 q 459 426 467 401 q 474 375 474 349 z"},"-":{"x_min":0,"x_max":349,"ha":349,"o":"m 302 282 q 317 282 317 275 l 317 266 q 317 233 305 219 q 294 204 255 204 l 83 204 q 46 204 46 214 l 47 217 l 47 220 q 47 266 69 277 q 79 282 199 282 l 222 282 z"},"E":{"x_min":0,"x_max":599,"ha":599,"o":"m 17 27 q 17 33 62 62 q 86 77 100 123 q 106 144 149 338 q 191 532 191 561 q 191 589 175 603 q 139 633 139 635 q 139 651 177 656 q 247 664 444 664 l 504 664 q 563 664 579 655 q 594 646 594 600 l 594 582 q 594 529 577 529 q 571 529 551 553 q 531 578 499 591 q 467 604 397 604 q 359 604 332 561 q 281 481 281 425 q 281 407 291 400 q 310 386 342 386 q 374 386 387 394 q 400 401 419 418 q 438 435 449 435 q 461 435 466 427 q 472 419 472 378 q 472 337 454 282 q 442 247 425 247 q 417 247 384 286 q 363 311 324 311 q 267 311 248 276 q 220 225 220 125 q 220 83 237 71 q 254 59 315 59 q 420 59 483 114 q 519 146 533 146 q 540 146 540 128 q 540 110 521 70 q 502 29 484 15 q 466 0 399 0 l 276 0 l 254 0 l 168 1 l 84 2 q 17 2 17 27 z"},"s":{"x_min":0,"x_max":403,"ha":403,"o":"m 230 152 q 221 161 171 194 q 122 227 102 252 q 82 278 82 318 q 82 376 134 415 q 187 455 255 455 l 267 455 q 323 455 361 438 q 382 429 382 400 l 382 390 q 382 358 371 344 q 361 330 351 330 q 341 330 310 365 q 279 401 246 401 q 212 401 192 386 q 172 371 172 346 q 172 322 188 307 q 204 292 254 260 q 304 229 325 204 q 346 178 346 140 q 346 78 294 34 q 243 -10 160 -10 l 147 -10 q 87 -10 42 9 q 18 20 18 57 q 18 95 29 111 q 40 127 52 127 q 64 127 83 99 q 103 70 122 57 q 141 43 178 43 q 216 43 234 62 q 253 82 253 106 q 253 131 230 152 z"},">":{"x_min":0,"x_max":562,"ha":562,"o":"m 79 53 l 79 62 q 79 87 129 116 q 142 124 277 191 q 412 259 412 261 q 412 271 297 328 q 183 386 139 412 q 95 438 95 468 q 95 498 109 498 q 115 498 430 336 q 514 293 514 275 q 514 238 494 225 q 475 213 284 120 q 94 28 86 28 q 79 28 79 53 z"},"l":{"x_min":0,"x_max":295,"ha":295,"o":"m 215 35 q 155 -4 101 -4 l 91 -4 q 74 -4 60 9 q 45 21 45 47 l 45 56 q 45 75 66 141 q 86 208 130 390 q 173 573 173 600 q 173 627 148 641 q 123 655 123 664 q 123 673 137 680 q 173 698 260 698 l 268 698 q 294 698 294 675 l 294 667 q 294 664 233 408 q 172 151 172 110 q 172 69 202 69 l 229 73 q 241 73 241 62 q 241 52 215 35 z"},"8":{"x_min":0,"x_max":534,"ha":534,"o":"m 136 152 l 136 143 q 136 99 163 70 q 190 40 232 40 l 237 40 q 290 40 327 81 q 364 122 364 183 l 364 187 q 364 232 327 272 q 291 312 254 312 l 250 312 q 212 312 174 257 q 136 203 136 152 z m 227 504 l 227 495 q 227 451 260 418 q 292 385 318 385 l 322 385 q 353 385 386 431 q 419 476 419 524 l 419 531 q 419 569 397 594 q 375 619 340 619 l 333 619 q 290 619 258 584 q 227 549 227 504 z m 129 482 q 129 558 193 613 q 257 669 349 669 q 457 669 499 593 q 513 566 513 538 l 513 527 q 513 449 423 384 q 384 356 384 353 q 384 350 411 324 q 438 298 453 269 q 468 240 468 200 q 468 115 398 52 q 329 -10 223 -10 q 144 -10 91 30 q 38 70 38 139 l 38 149 q 38 240 147 315 q 194 347 194 350 q 194 353 171 378 q 129 424 129 482 z"},"\\":{"x_min":0,"x_max":469,"ha":469,"o":"m 99 675 q 99 693 131 693 q 163 693 178 657 q 184 643 219 535 q 254 428 267 391 q 280 355 315 251 q 350 147 380 66 q 411 -16 411 -39 q 411 -56 383 -56 l 375 -56 q 348 -56 331 -16 q 313 24 305 54 q 297 84 283 125 l 260 192 q 256 203 249 226 q 241 249 234 267 l 224 299 q 218 315 213 331 q 208 347 202 365 q 196 382 183 418 q 169 455 163 476 q 156 497 128 575 q 99 653 99 675 z"},"e":{"x_min":0,"x_max":453,"ha":453,"o":"m 203 249 q 256 249 310 285 q 345 309 345 339 l 345 353 q 345 373 333 389 q 320 406 294 406 q 251 406 215 365 q 162 305 162 270 l 162 256 q 162 246 170 246 l 179 246 q 196 249 203 249 z m 311 455 l 320 455 q 369 455 404 429 q 438 403 438 355 l 438 346 q 438 294 398 265 q 344 225 225 208 q 167 199 159 194 q 140 183 140 144 q 140 104 164 82 q 188 60 223 60 q 258 60 286 71 q 313 82 338 95 q 364 107 373 107 q 389 107 389 92 q 389 85 369 63 q 348 41 296 17 q 244 -7 194 -7 l 185 -7 q 121 -7 79 34 q 36 75 36 151 q 36 206 58 260 q 105 375 209 428 q 262 455 311 455 z"},"b":{"x_min":0,"x_max":521,"ha":521,"o":"m 158 119 l 158 98 q 158 75 177 59 q 196 42 221 42 l 225 42 q 252 42 282 62 q 343 103 379 215 q 393 260 393 300 l 393 308 q 393 341 380 363 q 367 384 340 384 l 336 384 q 312 384 282 364 q 251 343 221 301 q 191 259 175 206 q 158 152 158 119 z m 132 675 q 162 697 241 697 q 283 697 283 661 q 283 650 256 543 q 229 436 229 409 q 229 383 238 383 q 246 383 270 398 q 294 412 320 423 q 346 435 389 435 q 432 435 463 399 q 494 364 494 311 l 494 299 q 494 248 469 188 q 419 71 321 21 q 277 -1 231 -1 l 220 -1 q 204 -1 173 7 q 143 15 140 15 q 137 15 120 13 l 103 11 q 78 11 61 25 q 44 39 44 68 q 44 97 73 191 q 76 201 122 391 q 167 581 167 601 q 167 622 146 635 q 124 648 124 658 q 124 668 132 675 z"},"%":{"x_min":0,"x_max":809,"ha":809,"o":"m 647 297 l 638 297 q 602 297 572 242 q 535 172 535 108 l 535 92 q 535 62 548 47 q 561 32 574 32 l 583 32 q 617 32 652 92 q 687 151 687 218 l 687 241 q 686 248 686 258 q 686 269 673 283 q 661 297 647 297 z m 299 633 l 289 633 q 253 633 219 571 q 186 509 186 444 l 186 431 q 188 422 188 410 q 188 397 200 383 q 213 368 229 368 l 235 368 q 271 368 304 429 q 337 490 337 545 l 338 552 l 338 565 l 338 571 q 338 604 325 619 q 312 633 299 633 z m 644 339 l 660 339 q 705 339 735 307 q 765 274 765 226 l 765 210 q 765 173 748 129 q 714 40 637 3 q 607 -11 573 -11 l 567 -11 q 516 -11 487 23 q 457 57 457 108 l 457 114 q 457 158 474 200 q 491 242 516 272 q 541 302 576 321 q 611 339 644 339 z m 722 651 q 722 626 264 69 q 210 3 182 3 q 153 3 153 13 q 153 35 629 615 q 666 660 694 660 q 722 660 722 651 z m 295 676 l 307 676 q 352 676 384 646 q 416 616 416 562 l 416 546 q 416 507 399 465 q 363 375 293 342 q 259 326 229 326 l 219 326 l 213 326 q 167 326 138 360 q 109 393 109 440 l 109 461 q 109 493 125 537 q 142 580 170 612 q 198 644 232 660 q 266 676 295 676 z"},"m":{"x_min":0,"x_max":802,"ha":802,"o":"m 659 23 q 594 23 594 104 q 594 128 607 194 q 621 260 621 289 q 621 360 591 360 q 571 360 545 336 q 520 313 490 259 q 460 205 441 127 q 423 49 403 26 q 382 3 334 3 q 302 3 302 30 q 302 39 316 84 q 375 271 375 337 q 375 368 348 368 q 295 368 238 293 q 202 246 176 161 q 150 76 139 58 q 118 21 95 21 q 75 21 75 83 l 75 100 q 75 129 81 180 q 86 230 91 255 q 96 279 96 285 l 92 310 q 89 332 89 346 q 89 384 112 400 q 135 417 155 417 q 175 417 184 398 q 206 353 208 353 q 219 353 285 398 q 352 444 392 444 q 433 444 451 426 q 470 407 479 377 q 487 348 493 348 q 498 348 529 370 q 559 392 564 395 q 610 424 651 424 q 692 424 713 397 q 734 370 734 333 l 734 315 q 734 296 720 229 q 707 162 707 120 q 707 78 715 70 l 725 65 q 730 62 730 57 q 730 51 720 44 q 688 23 659 23 z"},"#":{"x_min":0,"x_max":563,"ha":563,"o":"m 231 269 l 277 269 l 280 270 l 283 270 q 335 270 341 276 q 346 282 356 314 q 365 346 366 348 l 376 380 q 383 396 383 402 l 383 404 q 383 407 376 407 l 351 407 l 348 406 l 327 406 q 275 406 269 399 q 263 393 247 337 l 246 334 l 244 330 l 239 312 l 233 295 q 227 278 227 273 l 227 271 q 227 269 231 269 z m 456 637 q 467 656 491 656 q 515 656 515 636 q 515 630 497 570 q 479 509 479 493 q 479 476 518 470 q 557 464 557 445 q 557 422 536 414 q 526 410 492 407 q 458 405 449 395 q 441 385 427 339 q 414 293 414 285 q 414 272 458 269 q 502 267 502 244 q 502 222 483 213 q 476 210 441 207 q 406 203 392 190 q 377 177 358 113 q 338 48 334 39 q 322 13 298 13 q 273 13 273 28 q 273 43 293 111 q 313 179 313 188 q 313 205 251 205 q 218 205 210 197 q 202 188 179 116 q 155 43 152 36 q 140 13 118 13 l 104 13 q 91 13 91 30 q 91 33 111 101 q 131 168 131 179 q 131 190 124 196 q 117 202 85 207 q 54 211 54 223 q 54 255 77 265 q 81 267 116 269 q 152 272 163 286 q 192 322 192 379 q 192 396 187 400 q 182 404 145 409 q 107 414 107 434 q 107 455 130 463 q 133 464 172 470 q 211 476 222 491 q 234 506 252 566 q 271 626 277 637 q 291 657 314 657 q 337 657 337 636 l 296 490 q 296 475 306 472 q 309 471 350 471 q 391 471 398 477 q 406 484 430 558 q 454 633 456 637 z"},",":{"x_min":0,"x_max":271,"ha":271,"o":"m 7 -129 l 7 -124 q 7 -116 24 -102 q 86 -54 86 -14 q 86 -2 71 22 q 55 46 55 68 q 55 90 74 107 q 93 124 121 124 l 128 124 q 179 124 179 63 l 179 60 l 178 56 q 178 -1 131 -62 q 101 -102 67 -123 q 34 -144 20 -144 q 7 -144 7 -129 z"},"n":{"x_min":0,"x_max":561,"ha":561,"o":"m 396 4 q 341 4 341 70 q 341 102 365 191 q 389 281 389 318 q 389 355 377 365 q 366 375 350 375 q 334 375 307 357 q 280 339 246 292 q 211 245 187 166 q 184 155 172 105 q 160 56 149 38 q 130 7 92 7 q 58 7 58 43 l 58 65 q 58 118 84 186 q 111 254 111 308 q 111 323 94 337 q 78 351 78 365 q 78 393 107 414 q 137 436 172 436 q 191 436 205 411 q 219 387 219 360 q 219 334 221 334 q 227 334 260 365 q 343 442 407 442 l 419 442 q 458 442 479 416 q 499 390 499 355 q 499 319 476 232 q 453 145 453 105 q 453 65 472 65 l 502 72 q 506 72 506 63 q 506 54 489 41 q 441 4 396 4 z"},"h":{"x_min":0,"x_max":547,"ha":547,"o":"m 377 13 q 329 13 329 69 q 329 88 351 176 q 374 263 374 304 q 374 345 362 357 q 350 369 331 369 q 313 369 282 346 q 251 323 219 269 q 188 216 167 130 q 146 45 138 32 q 118 1 67 1 q 42 1 42 31 l 42 43 q 42 83 71 178 q 99 272 104 296 q 164 564 164 583 q 164 601 155 611 q 128 643 128 643 q 128 662 151 673 q 189 692 222 692 l 234 692 q 250 692 264 678 q 278 664 278 644 q 278 625 251 517 q 225 409 225 377 q 225 365 235 365 q 243 365 268 383 q 338 433 386 433 l 386 433 q 434 433 457 406 q 480 379 480 338 l 480 322 q 480 321 480 321 q 480 292 464 219 q 447 145 447 66 q 447 60 451 57 q 455 55 455 49 q 455 43 435 28 q 415 13 377 13 z"},"z":{"x_min":0,"x_max":458,"ha":458,"o":"m 422 443 q 438 443 438 419 q 438 396 403 354 q 369 312 260 209 q 151 105 151 86 q 151 81 162 78 q 230 61 287 61 q 317 61 343 86 q 384 127 393 127 q 408 127 408 102 q 408 46 374 10 q 354 -11 301 -11 q 249 -11 190 1 q 132 14 109 14 q 86 14 69 11 l 58 8 q 37 2 36 2 q 15 2 15 27 q 15 52 53 95 q 92 138 202 242 q 312 347 312 364 q 312 371 248 371 q 183 371 164 363 q 145 356 120 333 q 96 310 87 310 q 73 310 73 335 q 73 393 106 428 q 122 445 164 445 l 191 445 q 212 445 262 438 q 313 431 338 431 q 363 431 378 434 l 400 439 q 415 443 422 443 z"},"B":{"x_min":0,"x_max":618,"ha":618,"o":"m 254 52 l 278 52 q 349 52 396 95 q 444 139 444 204 l 444 222 q 444 269 411 296 q 379 323 331 323 l 321 324 l 292 324 q 282 323 278 323 q 255 323 246 292 q 201 147 201 84 l 201 73 q 201 52 254 52 z m 287 375 l 315 375 q 386 375 433 414 q 479 452 479 519 l 479 523 l 479 527 q 479 571 451 594 q 423 616 383 616 l 361 616 q 322 616 310 585 q 302 564 291 509 q 280 454 273 425 q 266 397 266 392 l 266 386 q 266 375 287 375 z m 388 667 q 591 667 591 531 q 591 474 558 435 q 524 396 485 379 q 446 362 446 361 q 446 358 483 338 q 519 318 540 286 q 560 254 560 204 q 560 154 534 114 q 487 40 394 16 q 335 0 262 0 l 197 0 l 184 1 l 110 1 l 73 0 l 37 0 q 5 0 5 13 q 5 26 53 55 q 81 71 95 116 q 102 140 144 336 q 187 532 187 564 q 187 596 169 610 q 135 638 135 642 q 135 662 196 662 l 221 663 l 297 665 l 323 666 q 348 667 361 667 z"},"K":{"x_min":0,"x_max":668,"ha":668,"o":"m 170 609 q 145 627 145 639 q 145 652 160 657 q 175 662 223 662 q 271 662 293 662 l 335 663 q 383 663 383 646 q 383 645 360 623 q 336 600 321 565 q 306 531 291 467 q 275 403 275 388 q 275 374 287 374 q 321 374 445 496 q 521 571 521 604 l 518 616 l 512 627 l 508 638 l 512 648 q 524 664 579 664 l 602 664 l 624 663 q 710 663 710 644 q 710 633 671 610 q 631 588 595 559 q 560 531 482 459 q 405 388 405 356 q 405 324 525 127 q 544 95 577 62 q 610 29 610 23 q 610 -1 543 -1 l 499 -1 q 434 -1 418 22 q 417 24 406 85 q 396 146 366 205 q 336 263 306 284 q 294 292 279 292 q 258 292 245 249 q 223 174 223 125 q 223 77 233 57 l 241 45 q 251 28 251 24 q 251 9 230 4 q 209 0 115 0 q 21 0 21 16 q 21 30 64 56 q 89 72 101 110 q 112 148 133 253 q 154 358 174 449 q 194 541 194 566 q 194 591 170 609 z"},"R":{"x_min":0,"x_max":644,"ha":644,"o":"m 262 364 l 262 357 q 262 347 289 347 l 306 347 q 391 347 433 389 q 484 440 484 509 l 483 513 q 483 560 457 586 q 430 613 385 613 l 362 613 q 325 613 313 583 q 312 580 287 474 q 262 368 262 364 z m 169 611 l 160 618 l 151 624 q 139 633 139 639 q 139 658 165 661 q 190 664 297 664 l 346 665 l 379 665 q 534 665 578 589 q 597 556 597 507 q 597 458 569 420 q 541 381 494 352 q 447 322 447 314 q 447 311 467 258 q 486 205 502 154 q 518 103 528 85 q 539 68 557 58 l 569 52 l 583 46 q 601 37 601 32 l 601 21 q 601 -1 541 -1 l 524 -1 q 460 -1 433 33 q 416 54 388 142 q 360 229 345 253 q 319 294 273 294 q 248 294 239 261 q 216 178 216 127 q 216 75 222 63 q 227 50 238 35 q 249 21 249 19 q 249 0 146 0 q 44 0 26 3 q 8 7 8 24 q 8 39 50 54 q 76 63 86 88 q 96 112 120 227 q 144 342 145 348 q 187 528 187 561 q 187 595 169 611 z"},"T":{"x_min":0,"x_max":604,"ha":604,"o":"m 123 18 q 123 30 156 44 q 188 59 199 71 q 210 83 220 116 q 231 148 272 337 q 314 525 314 563 q 314 602 286 602 q 233 602 202 581 q 171 561 143 527 q 115 494 104 494 q 94 494 94 509 q 94 524 106 581 q 118 639 124 646 q 134 661 266 661 l 298 662 q 315 662 331 662 l 364 663 l 623 666 q 655 666 655 645 q 655 560 634 511 q 628 497 620 497 q 605 497 591 534 q 577 571 552 588 q 526 605 478 605 q 448 605 435 563 q 433 556 386 349 q 340 143 340 105 q 340 67 364 50 q 399 26 399 15 q 399 0 355 0 l 323 0 l 306 0 l 289 0 l 175 2 q 123 2 123 18 z"},"P":{"x_min":0,"x_max":592,"ha":592,"o":"m 487 490 l 487 509 q 487 560 456 586 q 425 611 376 611 l 372 611 q 326 611 313 583 q 310 576 284 464 q 259 351 259 344 l 259 340 q 259 326 300 326 l 314 326 q 429 326 472 424 q 487 458 487 490 z m 9 15 q 9 26 58 58 q 80 72 95 123 q 101 141 129 274 q 158 407 173 467 q 187 528 187 559 q 187 590 173 604 q 173 605 156 618 q 139 631 139 637 q 139 661 219 661 l 244 662 q 257 662 270 662 l 294 663 q 307 664 320 664 l 345 665 l 383 665 l 396 665 q 550 665 590 571 q 603 542 603 512 l 603 499 q 603 449 579 405 q 530 313 418 285 q 375 273 288 273 q 251 273 242 256 q 211 204 211 106 q 211 73 232 56 q 273 22 273 17 q 273 0 223 0 l 173 0 l 161 0 l 96 0 l 59 0 q 9 0 9 15 z"},"|":{"x_min":0,"x_max":386,"ha":386,"o":"m 208 -185 l 189 -185 q 161 -185 161 -152 l 161 -123 l 171 273 q 171 572 182 708 q 184 736 215 736 l 225 736 q 252 736 252 703 l 252 664 l 243 278 q 243 -56 232 -158 q 229 -185 208 -185 z"},"t":{"x_min":0,"x_max":348,"ha":348,"o":"m 350 421 q 350 398 297 386 q 244 375 231 354 q 218 333 196 240 q 173 147 173 111 q 173 75 207 75 q 220 75 247 84 q 274 92 282 92 q 297 92 297 79 q 297 52 253 29 q 188 -5 144 -5 l 134 -5 q 104 -5 85 21 q 66 46 66 77 l 66 86 q 66 111 93 222 q 120 333 120 352 q 120 371 95 385 q 70 399 70 415 q 70 430 101 438 q 133 446 140 452 q 148 458 165 498 q 181 537 189 546 q 211 570 239 570 l 246 570 q 265 570 265 542 l 261 482 q 261 462 272 453 q 284 443 317 440 q 350 436 350 421 z"},"M":{"x_min":0,"x_max":869,"ha":869,"o":"m 177 604 l 164 620 q 151 635 151 646 q 151 660 224 660 q 296 660 316 647 q 336 635 347 609 q 358 584 389 392 q 420 199 431 199 l 445 215 l 555 397 q 659 570 684 603 q 709 636 740 648 q 770 661 817 661 q 893 661 893 640 l 882 624 l 848 592 q 829 569 819 533 q 809 498 773 319 q 738 139 738 111 q 738 82 750 64 l 765 50 q 783 35 783 28 l 771 17 q 743 1 637 1 q 571 1 571 21 l 578 31 l 588 44 q 601 60 611 88 q 622 117 640 189 q 707 450 707 506 l 706 520 q 694 520 563 303 q 432 85 423 74 q 392 31 363 31 q 349 31 341 56 q 333 82 303 292 q 272 502 254 502 l 247 486 q 237 459 197 276 q 157 93 157 75 q 157 56 163 39 q 168 22 168 20 q 168 4 118 4 q 11 4 11 26 q 11 38 43 62 q 75 87 92 138 q 110 190 167 426 q 189 515 189 550 q 189 585 177 604 z"},"g":{"x_min":0,"x_max":458,"ha":458,"o":"m 50 -118 l 50 -129 q 50 -155 82 -176 q 115 -196 170 -196 l 175 -196 q 229 -196 270 -173 q 310 -149 310 -117 l 310 -108 q 310 -77 270 -58 q 215 -33 157 -33 l 153 -34 q 118 -34 84 -64 q 50 -95 50 -118 z m 162 209 q 162 186 175 168 q 187 150 207 150 l 215 150 q 251 150 282 203 q 313 256 313 313 l 313 316 l 314 320 l 314 334 l 314 341 q 314 400 271 400 l 263 400 q 226 400 194 346 q 163 292 163 239 l 162 232 z m 285 432 l 380 422 q 395 422 411 423 l 435 425 q 472 425 472 405 q 472 393 457 383 q 429 364 423 355 q 418 345 411 308 q 404 271 392 241 q 379 211 349 182 q 319 152 290 141 q 261 130 227 123 q 192 116 188 114 q 158 100 158 82 q 158 64 178 53 q 188 48 257 25 q 326 2 350 -16 q 387 -44 387 -91 q 387 -115 372 -143 q 356 -170 327 -191 q 262 -240 163 -240 l 147 -240 q 70 -240 22 -208 q -26 -177 -26 -137 l -26 -126 q -26 -103 -12 -85 q 2 -67 43 -39 q 84 -12 84 -4 l 83 3 l 72 20 q 64 36 64 55 q 64 74 90 96 q 116 118 116 119 q 116 125 91 161 q 67 195 67 232 q 67 311 131 373 q 159 399 196 416 q 233 432 272 432 z"},"j":{"x_min":0,"x_max":295,"ha":295,"o":"m -100 -174 q -100 -141 -35 -140 q -1 -140 19 -125 q 39 -110 52 -72 q 66 -34 104 133 q 141 299 141 326 q 141 353 133 363 q 125 372 101 378 q 76 384 76 398 q 76 415 108 427 q 177 454 224 454 q 259 454 259 413 l 259 405 q 259 382 214 182 q 169 -18 139 -79 q 109 -141 61 -178 q 12 -216 -31 -216 q -74 -216 -87 -203 q -100 -190 -100 -174 z m 302 615 q 302 584 284 567 q 267 550 244 550 l 230 550 q 224 551 220 551 q 184 551 184 583 q 183 586 183 588 l 182 596 l 182 602 q 182 628 198 648 q 215 667 242 667 l 254 667 q 274 667 287 657 q 300 647 300 634 l 302 627 q 302 621 302 615 z"},"i":{"x_min":0,"x_max":303,"ha":303,"o":"m 251 69 q 251 48 200 22 q 149 -3 110 -3 l 103 -3 q 79 -3 66 10 q 53 23 53 42 l 53 49 q 53 62 90 181 q 126 300 126 334 q 126 367 104 371 q 65 377 65 393 q 65 413 95 426 q 149 451 200 451 l 206 451 q 225 451 233 441 q 242 431 242 410 q 242 388 209 262 q 177 136 177 101 q 177 76 204 76 l 235 81 q 251 81 251 69 z m 169 601 q 169 631 187 649 q 205 667 233 667 l 238 667 q 264 667 276 655 q 288 643 288 635 q 289 627 289 625 l 289 618 l 289 616 l 289 614 q 289 587 273 568 q 257 550 239 550 l 227 548 l 220 548 q 197 548 184 559 q 171 570 171 582 l 169 589 q 169 595 169 601 z"},"y":{"x_min":0,"x_max":491,"ha":491,"o":"m 429 442 q 479 442 479 399 l 479 388 q 479 379 438 287 q 354 96 284 -3 q 213 -102 152 -157 q 90 -213 40 -213 q -10 -213 -10 -182 q -10 -171 44 -153 q 98 -134 135 -99 q 186 -50 186 10 q 186 71 113 302 q 105 327 85 347 q 64 368 64 372 q 64 383 82 396 q 125 428 149 428 q 173 428 185 417 q 197 405 211 360 q 226 315 236 211 q 245 108 256 108 q 281 108 326 199 q 371 290 371 352 q 371 360 370 375 l 368 396 q 368 417 385 430 q 402 442 429 442 z"},"@":{"x_min":0,"x_max":752,"ha":752,"o":"m 77 257 q 77 325 108 398 q 140 470 197 524 q 253 577 322 603 q 391 628 451 628 q 575 628 650 562 q 725 495 725 394 q 725 292 671 219 q 641 177 602 157 q 564 137 534 137 q 505 137 491 144 q 478 150 472 166 q 466 181 458 181 l 443 170 q 416 149 395 138 q 375 126 343 126 q 311 126 289 154 q 267 182 267 220 q 267 289 302 339 q 356 416 411 416 l 427 416 q 400 407 365 360 q 322 302 322 247 l 321 240 l 320 229 l 320 219 q 320 195 331 181 q 341 167 356 167 l 362 167 l 365 168 q 404 168 449 236 q 494 304 494 373 l 494 386 q 494 413 466 417 q 473 419 479 420 q 511 426 528 426 q 545 426 545 391 q 545 384 531 326 q 518 269 518 248 q 518 201 549 201 q 564 201 589 217 q 613 233 633 265 q 664 315 664 383 q 664 420 649 454 q 621 521 553 552 q 506 574 446 574 q 386 574 330 548 q 274 521 231 474 q 145 377 145 237 q 145 188 162 141 q 198 44 295 8 q 343 -10 394 -10 q 445 -10 500 6 q 542 18 551 18 q 554 18 554 17 q 554 0 484 -21 q 414 -42 356 -42 q 298 -42 247 -21 q 196 0 162 33 q 77 115 77 257 z"},".":{"x_min":0,"x_max":271,"ha":271,"o":"m 114 -8 l 100 -8 q 78 -8 62 4 q 47 17 47 42 l 47 53 q 47 80 65 101 q 83 122 111 122 l 125 122 q 146 122 166 105 q 177 96 177 71 l 177 62 q 177 33 159 12 q 142 -8 114 -8 z"},"p":{"x_min":0,"x_max":532,"ha":532,"o":"m 407 289 l 407 308 q 407 345 392 368 q 377 391 352 391 l 340 391 q 287 391 235 301 q 182 211 182 116 l 182 99 q 182 78 200 63 q 217 48 240 48 l 252 48 q 302 48 357 128 q 371 148 389 197 q 407 246 407 289 z m 150 -173 q 150 -224 47 -224 l 35 -224 q -2 -224 -20 -208 q -27 -202 -27 -195 l -27 -188 q -27 -181 -15 -162 l -10 -153 q 18 -113 27 -81 q 36 -49 78 129 q 120 307 120 330 q 120 353 100 371 q 79 388 79 396 q 79 403 91 410 q 133 438 191 438 q 205 438 215 422 q 226 407 233 407 q 241 407 259 418 q 314 453 366 453 l 376 453 q 433 453 470 414 q 508 375 508 314 q 508 194 428 98 q 395 57 345 30 q 295 2 246 2 q 238 2 223 3 l 201 4 q 169 4 149 -21 q 128 -47 128 -103 q 128 -118 139 -142 q 150 -167 150 -173 z"},"X":{"x_min":0,"x_max":650,"ha":650,"o":"m 352 20 q 352 21 371 41 q 390 61 390 73 q 390 135 337 242 q 327 263 317 263 q 297 263 208 144 q 168 91 168 71 q 168 51 181 34 q 193 16 193 14 q 193 -1 45 -1 l 24 -1 q -20 -1 -20 12 q -20 25 46 63 q 77 81 123 131 q 248 266 268 292 q 289 319 289 342 q 289 381 197 554 q 180 587 163 601 q 120 637 120 643 q 120 664 239 664 q 359 664 359 649 q 359 646 342 627 q 324 608 324 577 q 324 546 366 450 q 378 422 384 422 q 396 422 460 495 q 523 569 523 598 q 523 610 511 630 q 499 649 499 650 q 499 665 539 665 l 582 665 l 604 665 q 702 665 702 648 q 702 636 658 611 q 614 586 571 541 q 418 380 418 348 q 418 329 443 271 q 520 100 522 95 q 539 67 559 55 q 597 34 597 28 q 597 10 585 5 q 573 0 478 0 l 434 0 l 413 0 q 352 0 352 20 z"},"*":{"x_min":0,"x_max":444,"ha":444,"o":"m 354 492 l 380 432 q 380 401 362 401 l 341 408 q 315 416 309 416 q 304 416 293 400 q 282 385 270 385 l 257 386 l 242 385 q 225 385 219 405 q 212 424 208 424 q 204 424 195 423 l 181 421 q 159 420 154 420 q 144 420 144 438 q 144 455 180 486 q 196 500 196 512 q 196 515 168 538 q 140 562 140 584 q 140 610 174 610 q 185 610 216 584 q 248 558 255 558 q 263 558 267 605 q 271 652 275 663 q 285 683 312 683 q 338 683 338 651 q 338 642 325 603 q 312 564 312 559 q 312 554 318 554 q 323 554 359 572 q 395 590 412 590 q 438 590 438 568 q 438 541 402 521 q 354 493 354 492 z"},"Y":{"x_min":0,"x_max":604,"ha":604,"o":"m 96 632 q 96 660 271 660 q 311 660 311 647 q 311 643 299 628 q 287 613 287 590 q 287 549 343 378 q 350 356 354 356 q 373 356 443 467 q 513 578 513 611 q 513 618 506 628 l 497 641 q 497 663 536 663 l 566 663 q 676 663 676 642 q 676 626 636 605 q 597 583 573 556 q 478 445 398 310 q 370 261 357 204 q 344 146 344 109 q 344 71 361 54 q 396 20 396 20 q 396 0 326 0 l 310 0 l 293 0 l 178 0 l 163 0 q 127 0 127 18 q 127 27 169 48 q 198 62 213 97 q 250 185 250 269 q 250 353 175 537 q 156 582 134 596 q 96 620 96 632 z"},"c":{"x_min":0,"x_max":437,"ha":437,"o":"m 140 165 q 140 58 234 58 q 262 58 310 78 q 359 99 369 99 q 380 99 380 90 q 380 82 371 71 q 345 40 293 15 q 242 -10 193 -10 l 183 -10 q 117 -10 75 33 q 34 77 34 145 l 34 155 q 34 156 34 157 q 34 206 57 262 q 103 375 208 426 q 254 448 305 448 l 314 448 q 369 448 404 430 q 428 417 428 391 l 428 383 q 428 364 414 348 q 400 331 387 331 q 374 331 344 358 q 313 386 285 386 q 228 386 184 318 q 140 251 140 165 z"},"!":{"x_min":0,"x_max":311,"ha":311,"o":"m 117 117 l 130 117 q 150 117 165 104 q 180 92 180 69 l 180 59 l 179 57 l 179 52 q 178 46 178 44 q 178 31 162 12 q 146 -7 125 -7 l 113 -8 l 108 -8 q 83 -8 69 4 q 54 16 54 37 l 54 52 l 56 64 q 56 85 75 101 q 94 117 117 117 z m 123 202 l 123 216 q 123 217 128 260 l 130 271 l 132 283 l 133 295 l 138 327 q 140 342 142 354 l 143 365 q 143 369 146 388 l 148 404 q 175 602 181 625 q 194 673 254 673 l 260 673 q 299 673 299 644 l 299 639 q 299 600 186 244 q 169 191 139 191 l 134 191 q 123 191 123 202 z"},"/":{"x_min":0,"x_max":394,"ha":394,"o":"m 449 679 q 449 670 426 625 q 231 248 82 -3 q 48 -61 17 -61 q -15 -61 -15 -48 q -15 -41 10 8 q 174 337 360 649 q 385 692 417 692 q 449 692 449 679 z"},"[":{"x_min":0,"x_max":368,"ha":368,"o":"m 421 688 q 421 667 374 656 q 327 646 318 639 q 299 625 282 572 q 265 518 208 245 q 151 -28 151 -58 q 151 -88 166 -100 q 169 -102 206 -113 q 243 -125 243 -138 q 243 -159 198 -159 l 187 -159 l 175 -158 l 139 -158 q 131 -158 124 -158 q 65 -158 55 -154 q 43 -150 43 -136 l 43 -127 q 43 -106 71 16 q 99 138 111 199 q 182 580 214 664 q 224 692 247 697 q 261 700 354 700 l 401 701 q 421 701 421 688 z"},"6":{"x_min":0,"x_max":534,"ha":534,"o":"m 383 252 q 383 300 361 329 q 339 357 305 357 l 292 357 q 242 357 201 306 q 161 254 161 178 l 161 156 q 161 100 186 71 q 210 42 247 42 l 251 42 l 255 42 q 300 42 341 99 q 382 157 382 225 l 383 234 z m 223 409 q 223 392 254 392 l 264 395 q 299 405 329 405 q 394 405 439 361 q 483 316 483 236 q 483 191 465 144 q 427 50 341 10 q 298 -10 248 -10 l 235 -10 q 154 -10 106 50 q 58 110 58 203 l 58 216 q 58 292 88 374 q 118 456 174 519 q 230 582 300 616 q 369 650 434 650 l 444 650 q 474 650 490 637 q 506 624 506 611 q 506 593 433 586 q 360 579 320 549 q 279 520 251 477 q 223 434 223 409 z"},"r":{"x_min":0,"x_max":403,"ha":403,"o":"m 167 443 l 174 443 q 202 443 214 427 q 225 411 225 370 q 225 329 229 329 q 233 329 247 347 q 314 431 370 431 q 406 431 406 403 l 406 397 q 406 373 378 352 q 365 342 329 342 q 292 342 274 325 q 255 308 232 264 q 208 221 189 128 q 170 35 164 26 q 145 0 96 0 q 76 0 64 7 q 53 15 53 47 q 53 79 86 174 q 120 269 120 326 q 120 344 97 354 q 75 365 75 384 q 75 403 107 423 q 139 443 167 443 z"},"2":{"x_min":0,"x_max":528,"ha":528,"o":"m 81 5 q 27 5 27 27 q 27 68 206 226 q 292 302 329 347 q 386 417 386 468 q 386 519 360 544 q 334 570 293 570 q 251 570 210 534 q 151 482 137 482 q 123 482 123 502 q 123 521 142 555 q 191 646 322 646 q 402 646 449 603 q 497 560 497 488 q 497 416 431 340 q 393 297 281 209 q 169 122 169 101 q 169 89 225 89 l 254 90 l 284 90 q 332 90 376 104 q 420 119 422 119 q 442 119 442 99 q 442 51 409 20 q 389 0 316 0 l 252 0 l 174 3 q 111 5 81 5 z"},"{":{"x_min":0,"x_max":375,"ha":375,"o":"m 70 271 q 70 282 122 306 q 151 320 165 348 q 179 375 191 482 q 204 589 238 636 q 262 668 301 688 q 341 707 385 707 l 396 707 q 416 707 416 697 q 416 690 361 654 q 333 635 313 600 q 293 565 281 480 q 269 395 255 362 q 242 328 217 307 q 208 299 187 288 q 167 276 167 274 q 167 272 183 259 q 199 246 209 229 q 219 211 219 180 q 219 149 200 76 q 182 3 182 -36 q 182 -91 225 -124 q 248 -143 248 -149 q 248 -165 218 -165 q 159 -165 124 -133 q 88 -102 88 -43 q 88 -6 111 74 q 134 153 134 184 q 134 214 121 229 q 108 243 89 254 q 70 264 70 271 z"},"9":{"x_min":0,"x_max":534,"ha":534,"o":"m 267 281 l 279 281 q 306 281 332 296 q 358 312 374 335 q 411 391 411 466 l 411 475 q 411 529 389 562 q 367 596 328 596 l 323 596 q 271 596 230 535 q 190 474 190 405 l 190 382 q 190 338 212 310 q 234 281 267 281 z m 324 648 q 453 648 497 534 q 514 488 514 435 l 514 421 q 514 343 483 260 q 453 177 399 116 q 345 55 275 21 q 205 -13 140 -13 l 129 -13 q 100 -13 81 1 q 62 15 62 25 q 62 42 137 51 q 212 60 250 86 q 289 111 319 154 q 349 197 349 231 q 349 246 321 246 q 318 246 295 240 q 272 234 250 234 q 177 234 134 282 q 91 330 91 410 q 91 451 110 497 q 128 542 163 578 q 198 614 241 631 q 284 648 324 648 z"}," ":{"x_min":0,"x_max":271,"ha":271,"o":""},"I":{"x_min":0,"x_max":371,"ha":371,"o":"m 10 12 q 10 28 40 42 q 69 57 80 69 q 92 81 107 123 q 108 124 153 323 q 198 522 198 571 q 198 598 177 613 q 143 638 143 649 q 143 665 189 665 l 222 665 l 233 665 l 366 665 l 396 665 q 412 665 412 651 q 412 637 383 622 q 354 608 341 594 q 328 579 312 530 q 296 481 260 305 q 225 129 225 101 q 225 72 242 55 q 245 52 262 40 q 279 29 279 20 q 279 0 233 0 l 223 0 l 179 0 l 157 0 l 123 0 l 57 0 l 26 0 q 10 0 10 12 z"},"H":{"x_min":0,"x_max":748,"ha":748,"o":"m 173 603 l 158 611 q 135 625 135 632 q 135 649 149 653 q 163 658 244 658 l 340 659 q 385 659 385 645 q 385 639 359 620 q 333 601 321 570 q 275 459 275 395 q 275 375 317 371 q 344 368 458 368 q 534 368 551 397 q 560 411 571 473 q 583 535 583 559 q 583 583 568 612 q 553 642 553 642 q 553 664 700 664 l 748 664 q 793 664 793 646 q 793 635 755 615 q 717 594 703 549 q 698 534 653 325 q 607 116 607 106 q 607 72 626 59 q 662 33 662 26 q 662 13 639 7 q 626 4 518 4 q 411 4 411 21 l 417 31 l 444 50 q 478 81 510 201 q 528 266 528 297 q 528 312 505 318 q 490 321 386 321 q 282 321 262 304 q 250 294 243 269 q 214 171 214 124 q 214 76 223 58 l 231 46 q 243 29 243 22 q 243 0 80 0 l 57 0 q 5 0 5 14 q 5 37 44 53 q 83 70 96 112 q 102 134 145 338 q 188 542 188 566 q 188 591 173 603 z"},"4":{"x_min":0,"x_max":536,"ha":536,"o":"m 169 229 l 274 229 q 300 229 305 244 q 307 251 317 301 q 328 350 346 433 q 365 517 365 521 q 365 524 363 524 q 349 524 250 400 q 221 365 164 303 q 107 241 107 233 q 107 229 169 229 z m 483 618 l 483 609 q 483 608 483 608 q 483 582 453 454 q 423 323 423 295 q 423 267 451 247 q 479 227 479 202 q 479 196 457 178 q 436 160 431 152 q 396 98 396 92 q 396 86 401 73 q 406 60 406 48 q 406 18 376 0 q 347 -17 287 -17 l 264 -17 q 239 -17 225 -7 q 210 4 210 21 q 210 39 234 62 q 258 86 258 112 q 258 138 239 149 q 220 161 147 161 q 75 161 52 171 q 30 181 30 204 q 30 228 71 276 q 259 494 362 598 q 406 642 455 642 q 483 642 483 618 z"},"~":{"x_min":0,"x_max":551,"ha":551,"o":"m 441 297 q 479 337 488 337 q 512 337 512 309 q 512 265 457 222 q 425 197 386 197 q 347 197 279 231 q 212 265 185 265 q 157 265 125 231 q 93 197 89 197 l 84 197 q 62 197 62 231 q 62 265 103 301 q 145 338 189 338 l 194 337 q 232 337 297 304 q 362 270 389 270 q 416 270 441 297 z"},"D":{"x_min":0,"x_max":715,"ha":715,"o":"m 269 53 l 293 53 q 350 53 402 78 q 502 126 551 262 q 575 331 575 398 l 575 423 q 575 465 560 506 q 544 546 522 567 q 474 613 401 613 l 384 613 q 327 613 314 580 q 313 575 286 452 q 259 328 232 211 q 206 95 206 80 q 206 53 269 53 z m 176 608 q 139 638 139 641 q 139 663 194 663 l 218 664 q 230 665 242 665 l 267 666 l 354 667 l 393 667 q 607 667 670 525 q 695 468 695 405 l 695 392 q 695 307 658 230 q 584 79 436 25 q 367 0 277 0 l 189 0 l 177 0 l 117 0 l 68 0 l 32 0 q 6 0 6 15 q 6 30 51 52 q 81 67 95 109 q 102 128 146 329 q 191 529 191 562 q 191 595 176 608 z"},"^":{"x_min":0,"x_max":537,"ha":537,"o":"m 412 342 q 396 366 345 465 q 294 564 289 564 q 289 564 234 469 q 180 375 166 354 q 132 306 103 306 q 74 306 74 319 q 74 323 108 382 q 143 440 195 536 q 248 631 259 646 q 271 660 300 660 l 308 660 q 326 660 360 592 q 495 333 495 320 q 495 307 464 307 q 434 307 412 342 z"},"0":{"x_min":0,"x_max":537,"ha":537,"o":"m 223 41 l 235 41 q 267 41 298 74 q 363 144 398 319 q 417 412 417 459 l 417 487 q 417 535 398 565 q 379 596 348 596 l 336 596 q 307 596 275 564 q 208 498 173 319 q 153 221 153 170 l 153 163 q 153 107 171 74 q 189 41 223 41 z m 521 449 l 521 421 q 521 351 494 260 q 467 170 426 111 q 385 53 333 21 q 280 -12 225 -12 l 215 -12 q 138 -12 94 45 q 51 101 51 198 l 51 208 q 51 285 78 375 q 129 549 243 618 q 293 648 348 648 l 357 648 q 432 648 477 594 q 521 539 521 449 z"},"F":{"x_min":0,"x_max":567,"ha":567,"o":"m 174 605 q 146 631 146 634 q 146 649 165 654 q 184 659 251 659 l 304 660 q 417 664 462 664 l 529 664 q 579 664 589 655 q 600 646 600 598 q 600 550 591 533 q 583 516 576 516 q 565 516 550 544 q 534 573 513 585 q 476 606 386 606 q 352 606 325 555 q 278 464 278 402 q 278 392 294 383 q 309 375 345 375 q 380 375 419 400 q 457 426 468 426 q 478 426 478 396 q 478 332 452 271 q 437 236 413 236 q 398 236 387 259 q 376 282 364 290 q 352 297 328 297 q 271 297 252 265 q 228 223 228 98 q 228 62 250 34 q 261 20 261 17 q 261 1 197 1 l 163 2 q 129 3 111 3 q 47 3 26 18 l 20 25 q 20 43 56 61 q 92 79 103 111 l 107 128 q 120 178 136 259 q 152 339 172 429 q 191 519 191 554 q 191 590 174 605 z"},"`":{"x_min":0,"x_max":393,"ha":393,"o":"m 180 690 l 190 690 q 216 690 248 655 q 322 569 322 542 l 322 536 q 322 523 306 523 l 298 523 q 281 523 213 584 q 144 645 144 658 l 144 665 q 144 690 180 690 z"},"k":{"x_min":0,"x_max":516,"ha":516,"o":"m 66 11 q 37 11 37 44 q 37 77 65 159 q 69 172 115 369 q 161 566 161 593 q 161 620 146 631 q 110 659 110 659 q 110 677 130 683 q 173 697 249 697 q 275 697 275 668 q 275 645 243 508 q 211 371 211 324 q 211 295 228 295 q 244 295 290 345 q 335 395 364 414 q 392 433 432 433 q 472 433 472 409 q 472 396 421 367 q 317 308 317 270 q 317 258 346 189 q 375 120 391 98 q 407 75 436 67 q 464 60 464 52 q 464 44 434 27 q 403 9 359 9 q 332 9 313 37 q 293 65 265 135 q 236 205 221 205 q 185 205 162 107 q 151 62 137 42 q 113 11 66 11 z"},"u":{"x_min":0,"x_max":555,"ha":555,"o":"m 64 394 l 64 400 q 64 404 78 411 q 136 440 170 440 q 203 440 213 426 q 223 413 223 383 q 223 353 198 253 q 174 152 174 120 q 174 87 187 77 q 199 67 209 67 q 210 67 210 67 q 233 67 265 93 q 340 154 374 279 q 407 404 409 407 q 425 433 458 433 q 474 433 480 418 q 486 403 486 368 q 486 333 468 260 q 450 187 450 145 q 450 120 470 110 q 491 100 491 75 q 491 50 473 35 q 442 8 409 8 q 376 8 361 27 q 346 47 346 98 q 346 110 340 110 q 333 110 296 75 q 216 0 156 0 l 144 0 q 113 0 89 24 q 65 47 65 85 q 65 123 92 227 q 118 332 118 351 q 118 370 95 377 q 64 387 64 394 z"},"]":{"x_min":0,"x_max":369,"ha":369,"o":"m -31 -146 q -31 -126 18 -114 q 66 -103 78 -95 q 90 -87 106 -40 q 123 7 182 289 q 240 570 240 600 q 240 629 225 642 q 220 646 185 656 q 150 667 150 682 q 150 701 195 701 l 207 700 l 254 700 q 328 699 339 696 q 350 693 350 679 l 350 669 q 350 652 330 564 q 310 477 252 203 q 195 -72 182 -108 q 169 -145 154 -151 q 140 -158 61 -158 l 13 -159 l 0 -159 q -31 -159 -31 -146 z"},"U":{"x_min":0,"x_max":704,"ha":704,"o":"m 107 180 q 107 228 142 390 q 178 552 178 574 q 178 595 149 608 q 121 622 121 632 q 121 653 147 658 q 166 662 235 662 l 254 662 l 272 663 q 297 664 311 664 q 362 664 362 652 q 362 644 354 637 q 327 613 327 612 q 303 581 285 515 q 216 266 216 167 q 216 108 258 75 q 290 50 343 50 q 452 50 504 161 q 531 217 560 360 q 589 503 589 550 q 589 597 581 614 q 579 618 569 631 q 560 645 560 649 q 560 666 623 666 l 661 666 q 733 666 745 660 q 757 655 757 641 q 757 624 724 608 q 691 593 681 565 q 677 555 632 358 q 587 160 556 108 q 524 56 467 23 q 410 -9 339 -9 l 318 -9 q 262 -9 218 7 q 107 49 107 180 z"},"o":{"x_min":0,"x_max":500,"ha":500,"o":"m 145 160 l 145 135 q 145 97 163 70 q 181 43 210 43 l 225 43 q 244 43 271 61 q 298 79 320 117 q 371 204 371 279 l 372 290 l 372 310 q 372 352 355 379 q 337 406 307 406 l 298 406 q 270 406 243 385 q 215 363 198 333 q 145 244 145 160 z m 312 457 l 326 457 q 392 457 434 412 q 476 367 476 292 l 476 285 q 476 235 453 178 q 431 122 392 81 q 308 -7 206 -7 l 199 -7 q 125 -7 83 37 q 41 82 41 151 l 41 166 q 41 213 63 269 q 84 324 122 365 q 160 407 209 432 q 259 457 312 457 z"},"N":{"x_min":0,"x_max":722,"ha":722,"o":"m 9 23 q 9 35 44 54 q 80 73 95 118 q 104 146 144 336 q 184 527 184 553 q 184 580 169 595 q 126 638 126 640 q 126 660 209 660 q 258 660 281 647 q 304 633 325 603 q 345 572 440 376 q 535 180 537 180 q 551 180 582 347 q 613 515 613 549 q 613 583 607 597 q 602 610 590 627 q 578 644 578 646 q 578 665 636 665 l 705 665 q 771 665 771 652 q 771 633 748 613 q 704 575 698 562 q 685 533 608 175 l 598 129 q 588 81 584 62 l 579 40 q 568 3 547 3 q 511 3 466 80 q 453 102 358 303 q 263 505 248 505 l 242 490 q 228 442 201 299 q 175 155 175 110 q 175 65 183 49 l 190 38 q 203 21 203 20 q 203 0 130 0 l 108 0 q 36 0 22 4 q 9 8 9 23 z"},"+":{"x_min":0,"x_max":563,"ha":563,"o":"m 68 249 l 68 258 q 68 291 78 295 q 89 299 167 299 q 245 299 250 300 q 259 302 260 324 q 260 345 260 398 q 260 451 268 481 q 272 498 310 498 q 329 498 333 493 q 338 489 338 464 l 336 438 q 335 419 335 410 l 331 317 q 331 300 412 300 q 493 300 504 297 q 516 295 516 276 l 516 267 q 516 238 502 234 q 489 229 413 229 q 337 229 330 226 q 323 223 323 197 q 322 170 322 122 q 322 74 314 44 q 310 26 284 26 l 265 26 q 247 26 247 59 q 247 60 247 61 q 248 96 249 114 q 250 132 250 142 l 251 169 q 252 197 252 210 q 252 223 245 226 q 237 229 152 229 q 68 229 68 249 z"},"G":{"x_min":0,"x_max":699,"ha":699,"o":"m 675 611 l 675 594 q 675 542 656 508 q 648 494 642 494 q 632 494 604 533 q 576 572 539 592 q 501 612 437 612 q 397 612 348 585 q 300 557 264 509 q 229 461 208 397 q 187 333 187 253 q 187 173 227 117 q 248 87 281 69 q 314 51 350 51 q 386 51 415 63 q 443 75 455 92 q 477 125 477 212 q 477 242 456 267 q 448 276 448 281 q 448 297 549 297 q 650 297 665 282 l 669 272 q 669 265 647 245 q 625 225 617 206 q 608 188 592 119 q 576 50 558 34 q 540 18 501 12 q 462 6 431 0 q 399 -7 373 -9 l 353 -10 q 227 -10 156 52 q 65 132 65 254 l 65 274 q 65 347 96 419 q 159 569 297 636 q 375 673 449 673 l 469 673 q 484 673 649 648 q 675 645 675 611 z"},"q":{"x_min":0,"x_max":522,"ha":522,"o":"m 375 331 l 375 352 q 375 374 358 389 q 340 404 319 404 l 306 404 q 284 404 254 385 q 225 365 203 330 q 142 236 142 158 l 142 136 q 142 102 156 83 q 169 64 186 64 l 197 64 q 222 64 256 90 q 291 115 316 154 q 375 246 375 331 z m 415 -189 q 415 -219 308 -219 l 284 -219 q 224 -219 224 -192 q 224 -183 244 -148 q 265 -114 289 -47 q 312 20 312 61 q 312 69 308 69 q 301 68 275 53 q 204 7 150 7 q 150 7 149 7 q 149 7 148 7 q 102 7 70 42 q 39 76 39 131 l 39 144 q 39 193 62 252 q 86 312 128 360 q 209 453 308 453 q 338 453 369 439 q 399 426 406 426 q 413 426 435 438 q 457 450 477 450 q 504 450 504 416 q 504 399 488 353 q 472 307 463 277 q 455 247 415 75 q 375 -97 375 -122 q 375 -148 395 -167 q 415 -186 415 -189 z"},"d":{"x_min":0,"x_max":542,"ha":542,"o":"m 138 145 l 138 132 q 138 99 150 80 q 163 60 185 60 l 192 60 q 217 60 250 84 q 283 108 312 151 q 341 193 355 243 q 369 293 369 316 l 370 325 l 370 338 l 370 342 q 370 368 354 383 q 337 398 306 398 l 301 398 q 248 398 198 326 q 170 285 154 231 q 138 178 138 145 z m 404 673 q 441 699 513 699 q 551 699 551 651 q 551 644 490 396 q 430 147 430 111 q 430 92 458 85 q 485 79 485 60 q 485 42 450 23 q 415 3 387 3 q 338 3 325 52 q 317 81 309 81 q 301 80 278 62 q 205 2 152 2 q 99 2 67 36 q 36 70 36 129 q 36 255 125 359 q 203 450 307 450 l 374 442 q 398 442 415 488 q 432 534 432 572 q 432 611 425 620 q 417 630 406 640 q 395 650 395 659 q 395 667 404 673 z"},"1":{"x_min":0,"x_max":512,"ha":512,"o":"m 63 12 q 63 30 106 47 q 148 63 163 76 q 177 88 184 107 q 192 127 229 296 q 267 466 267 494 q 267 523 250 533 q 244 537 208 542 q 171 548 171 558 q 171 575 202 586 q 352 641 387 641 q 407 641 407 620 q 407 605 387 529 q 368 452 334 294 q 300 137 300 109 q 300 82 317 66 q 325 60 353 46 q 381 32 381 16 q 381 0 210 0 l 188 0 l 167 0 l 145 0 l 112 0 l 91 0 q 63 0 63 12 z"},"5":{"x_min":0,"x_max":525,"ha":525,"o":"m 486 639 q 517 639 517 616 q 517 604 504 582 q 491 561 474 552 q 457 543 358 543 q 260 543 244 529 q 229 514 214 477 q 200 440 200 427 q 200 413 205 410 q 209 407 257 403 q 306 400 340 390 q 374 379 402 355 q 461 307 461 226 q 461 172 439 127 q 394 36 296 -5 q 241 -27 187 -27 l 170 -27 q 105 -27 68 -4 q 30 19 30 55 l 30 66 q 30 94 59 94 q 75 94 120 64 q 164 34 197 34 q 229 34 261 49 q 293 63 316 91 q 351 135 351 204 q 351 229 337 256 q 323 284 299 300 q 262 326 181 329 q 155 330 146 333 q 125 340 125 371 q 125 384 153 482 q 182 579 193 600 q 213 635 275 635 l 322 634 q 354 633 384 633 l 459 637 q 482 639 486 639 z"}}}
